<?xml version="1.0" encoding="utf-8"?>
<!-- Generator: Adobe Illustrator 24.2.0, SVG Export Plug-In . SVG Version: 6.00 Build 0)  -->
<svg version="1.1" id="Layer_1" xmlns="http://www.w3.org/2000/svg" xmlns:xlink="http://www.w3.org/1999/xlink" x="0px" y="0px"
	 viewBox="0 0 64 80" style="enable-background:new 0 0 64 80;" xml:space="preserve">
<style type="text/css">
	.st0{fill:none;}
</style>
<g>
	<path d="M58.6,21.8h-5.5v-9c0-2.7-2.1-4.9-4.8-4.9c0,0,0,0,0,0H7.2c-2.7,0-4.8,2.1-4.9,4.8c0,0,0,0,0,0v36.3c0,2.7,2.2,4.8,4.8,4.8
		c0,0,0,0,0,0h22.5v10.9c0,1.7,1.4,3.1,3.1,3.1h25.8c1.7,0,3.1-1.4,3.1-3.1V24.9C61.7,23.2,60.3,21.8,58.6,21.8
		C58.6,21.8,58.6,21.8,58.6,21.8z M29.7,51.9H7.2c-1.6,0-2.8-1.3-2.8-2.8V12.8c0-1.6,1.3-2.8,2.8-2.8h41.1c1.6,0,2.8,1.3,2.8,2.8v9
		H40.4c-1.6-7-8.6-11.3-15.6-9.7c-5,1.2-8.8,5.2-9.8,10.2c-0.1,0.7,0.1,1.4,0.5,2c0.5,0.6,1.1,0.9,1.9,0.9h12.4V51.9z M29.8,15.3
		L27.2,14l0,0c-0.1,0-0.2-0.1-0.3-0.1h-0.2c-0.1,0-0.2,0-0.2,0h-0.1c-0.1,0-0.2,0.1-0.3,0.2l0,0c-0.1,0.1-0.1,0.1-0.2,0.2L24.2,17
		c-0.2,0.5,0,1.1,0.5,1.3c0.4,0.2,0.9,0.1,1.2-0.3l0.4-0.6l0.4,1.7c-2.5,0.2-4.7,1.7-5.7,4.1h-3.7c-0.1,0-0.2-0.1-0.3-0.1
		c-0.1-0.1-0.1-0.2-0.1-0.4c1.1-6,6.9-9.9,12.8-8.8c4.1,0.8,7.4,3.8,8.6,7.9h-5.5h-0.2c-0.9-1.2-2.2-2.1-3.7-2.5l-0.7-2.5l0.8,0.4
		c0.1,0.1,0.3,0.1,0.4,0.1c0.6,0,1-0.5,1-1C30.4,15.8,30.2,15.5,29.8,15.3L29.8,15.3z M27.7,23.2h-4.5c0.9-1.3,2.3-2.1,3.9-2.1h0
		L27.7,23.2z M30.2,23.2h-0.4l-0.4-1.5c0.5,0.3,0.9,0.6,1.2,1C30.5,22.9,30.3,23,30.2,23.2z M59.7,64.8c0,0.6-0.5,1.1-1.1,1.1H32.8
		c-0.6,0-1.1-0.5-1.1-1.1V29.9c0-1.3-0.1-2.6,0-3.8v-0.8c0-0.8,0.7-1.5,1.5-1.5h0.6c1.6,0,3.2,0,4.8,0c3.8,0,7.7,0,11.6,0h8.5
		c0.6,0,1.1,0.5,1.1,1.1c0,0,0,0,0,0.1V64.8z"/>
	<path d="M55,25.9H36.3c-0.2,0-0.4,0-0.6,0.1c-1.2,0.3-2,1.3-2,2.6v9.7c0,1.5,1.2,2.6,2.6,2.6H55c1.5,0,2.6-1.2,2.6-2.6v-9.7
		C57.7,27.1,56.5,25.9,55,25.9z M55.7,38.3c0,0.4-0.3,0.6-0.6,0.6H36.3c-0.4,0-0.6-0.3-0.6-0.6v-9.7c0-0.4,0.3-0.6,0.6-0.6H55
		c0.4,0,0.6,0.3,0.6,0.6V38.3z"/>
	<path d="M40.2,41.9h-5c-0.6,0-1,0.4-1,1v5c0,0.6,0.4,1,1,1h5c0.6,0,1-0.4,1-1v-5C41.2,42.4,40.7,41.9,40.2,41.9z M39.2,46.9h-3v-3
		h3V46.9z"/>
	<path d="M48.2,41.9h-5c-0.6,0-1,0.4-1,1v5c0,0.6,0.4,1,1,1h5c0.6,0,1-0.4,1-1v-5C49.2,42.4,48.7,41.9,48.2,41.9z M47.2,46.9h-3v-3
		h3V46.9z"/>
	<path d="M56.2,41.9h-5c-0.6,0-1,0.4-1,1v5c0,0.6,0.4,1,1,1h5c0.6,0,1-0.4,1-1v-5C57.2,42.4,56.7,41.9,56.2,41.9z M55.2,46.9h-3v-3
		h3V46.9z"/>
	<path d="M40.2,49.9h-5c-0.6,0-1,0.4-1,1v5c0,0.6,0.4,1,1,1h5c0.6,0,1-0.4,1-1v-5C41.2,50.4,40.7,49.9,40.2,49.9z M39.2,54.9h-3v-3
		h3V54.9z"/>
	<path d="M48.2,49.9h-5c-0.6,0-1,0.4-1,1v5c0,0.6,0.4,1,1,1h5c0.6,0,1-0.4,1-1v-5C49.2,50.4,48.7,49.9,48.2,49.9z M47.2,54.9h-3v-3
		h3V54.9z"/>
	<path d="M56.2,49.9h-5c-0.6,0-1,0.4-1,1v5c0,0.6,0.4,1,1,1h5c0.6,0,1-0.4,1-1v-5C57.2,50.4,56.7,49.9,56.2,49.9z M55.2,54.9h-3v-3
		h3V54.9z"/>
	<path d="M40.2,57.9h-5c-0.6,0-1,0.4-1,1v5c0,0.6,0.4,1,1,1h5c0.6,0,1-0.4,1-1v-5C41.2,58.4,40.7,57.9,40.2,57.9z M39.2,62.9h-3v-3
		h3V62.9z"/>
	<path d="M48.2,57.9h-5c-0.6,0-1,0.4-1,1v5c0,0.6,0.4,1,1,1h5c0.6,0,1-0.4,1-1v-5C49.2,58.4,48.7,57.9,48.2,57.9z M47.2,62.9h-3v-3
		h3V62.9z"/>
	<path d="M56.2,57.9h-5c-0.6,0-1,0.4-1,1v5c0,0.6,0.4,1,1,1h5c0.6,0,1-0.4,1-1v-5C57.2,58.4,56.7,57.9,56.2,57.9z M55.2,62.9h-3v-3
		h3V62.9z"/>
</g>
<rect x="-28.8" y="75.2" class="st0" width="52.7" height="13"/>
</svg>
