<?xml version="1.0" encoding="utf-8"?>
<!-- Generator: Adobe Illustrator 24.1.3, SVG Export Plug-In . SVG Version: 6.00 Build 0)  -->
<svg version="1.1" id="Capa_1" xmlns="http://www.w3.org/2000/svg" xmlns:xlink="http://www.w3.org/1999/xlink" x="0px" y="0px"
	 viewBox="0 0 510 510" style="enable-background:new 0 0 510 510;" xml:space="preserve">
<g>
	<path d="M459,0h-29.2H87.7H51C23,0,0,23,0,51v19.3v353.4V459c0,28,23,51,51,51h10.6h3.1h17.1h87.3H191h210.2c0,0,0.1,0,0.1,0h41.2
		v0H459c28.1,0,51-23,51-51v-49V70.3V51C510,23,487.1,0,459,0z M255,464.5c-115.7,0-209.8-94-209.8-209.5S139.3,45.5,255,45.5
		c115.7,0,209.8,94,209.8,209.5S370.7,464.5,255,464.5z"/>
	<path d="M243.7,196.4c-28.4-50.2-58.7-92.6-64.8-101c-48.8,23.3-85.3,68.2-97.1,122.3c0.5,0,1.1,0,1.7,0
		C99.8,217.8,167.5,216.5,243.7,196.4z"/>
	<path d="M285.8,285.5c-97.1,33.8-133.8,100-138.9,109.9c30,23.1,67.4,36.9,108.1,36.9c24.3,0,47.4-4.9,68.5-13.8
		c-2.8-16.5-13.2-69.7-37.5-133C285.9,285.5,285.8,285.5,285.8,285.5z"/>
	<path d="M371.8,122.2c-31.2-27.4-72.1-44-116.8-44c-13.7,0-27.1,1.6-40,4.6c7.2,9.7,37.5,51.6,65.2,102.2
		C340,162.5,366.8,129,371.8,122.2z"/>
	<path d="M267.1,255.8c1.9-0.6,3.9-1.2,5.9-1.8c-4.2-9.5-8.8-18.9-13.5-28.3c-78.7,23.4-155,25.2-177,25.2c-2,0-3.6,0-4.6,0
		c0,1.5-0.1,2.9-0.1,4.4c0,45,16.9,86,44.6,117.3C129.9,360.2,178.6,284.4,267.1,255.8z"/>
	<path d="M357.1,274.1c-11.3,0-23.3,0.7-35.7,2.7c22,60.8,31.6,110.6,34,124.3c38.8-26.7,66.5-68.5,74.5-116.8
		C423.1,282.2,394.1,274.1,357.1,274.1z"/>
	<path d="M306.2,238.3c1.2,2.8,2.4,5.6,3.5,8.5c13.7-1.7,27.4-2.3,40.4-2.3c40.3,0,74,6.3,82,7.9c-0.7-40.8-15.2-78.3-39.2-107.9
		c-6.2,8-36.1,43.5-98.1,69C298.9,221.6,302.7,229.9,306.2,238.3z"/>
</g>
</svg>
