<?xml version="1.0" encoding="utf-8"?>
<!-- Generator: Adobe Illustrator 24.1.3, SVG Export Plug-In . SVG Version: 6.00 Build 0)  -->
<svg version="1.1" id="Capa_1" xmlns="http://www.w3.org/2000/svg" xmlns:xlink="http://www.w3.org/1999/xlink" x="0px" y="0px"
	 viewBox="0 0 510 510" style="enable-background:new 0 0 510 510;" xml:space="preserve">
<g>
	<path d="M183,410.1c-3.5,0.7-5.1,2.3-4.7,5c0.4,2.7,2.4,3.5,6,2.7c3.5-0.9,5.1-2.4,4.6-4.6C188.6,410.6,186.6,409.6,183,410.1z"/>
	<path d="M164.1,412.7c-3.5,0-5.3,1.2-5.3,3.7c0,2.9,1.9,4.1,5.6,3.6c3.5,0,5.3-1.2,5.3-3.6C169.7,413.5,167.9,412.3,164.1,412.7z"
		/>
	<path d="M138.2,411.7c-0.9,2.4,0.6,4.1,4.3,5c3.3,1.3,5.4,0.7,6.3-2c0.7-2.4-0.8-4.2-4.3-5.3C141.2,408.5,139.1,409.3,138.2,411.7z
		"/>
	<path d="M100,371.2c-1.5,1.1-1.3,2.9,0.7,5.3c2.2,2.2,4,2.5,5.3,1c1.5-1.1,1.3-2.9-0.7-5.3C103.1,370.2,101.3,369.9,100,371.2z"/>
	<path d="M89.1,362.9c-0.7,1.6,0.1,2.9,2.3,4c1.8,1.1,3.2,0.9,4.3-0.7c0.7-1.6-0.1-2.9-2.3-4C91.2,361.6,89.7,361.8,89.1,362.9z"/>
	<path d="M110.3,384.2c-2,1.1-2,3.1,0,6c2,2.9,3.9,3.7,5.6,2.3c2-1.6,2-3.7,0-6.3C114.2,383.3,112.3,382.6,110.3,384.2z"/>
	<path d="M121.9,399.1c-2,1.8-1.6,3.9,1.3,6.3c2.7,2.7,4.9,3,6.6,1c1.8-1.8,1.3-3.9-1.3-6.3C125.9,397.4,123.7,397.1,121.9,399.1z"
		/>
	<path d="M459,0H51C23,0,0,23,0,51v408c0,28,23,51,51,51h10.6h3.1h104.4H191c0,0-0.1-24.1-0.2-38.5c-0.1-14.4-0.2-25.8-0.2-34.2
		l-7.6,1.3c-4.9,0.9-11,1.3-18.4,1.2c-7.4-0.1-15.1-0.9-23.1-2.3c-8-1.4-15.4-4.8-22.2-10c-6.9-5.2-11.7-12-14.6-20.4l-3.3-7.6
		c-2.2-5.1-5.7-10.7-10.5-16.9c-4.8-6.2-9.6-10.4-14.4-12.6l-2.3-1.7c-1.5-1.1-3-2.4-4.3-4c-1.3-1.6-2.3-3.1-3-4.6
		c-0.7-1.6-0.1-2.8,1.7-3.8c1.8-1,5-1.5,9.6-1.5l6.6,1c4.4,0.9,9.9,3.5,16.4,8c6.5,4.4,11.9,10.2,16.1,17.3
		c5.1,9.1,11.2,16,18.4,20.8c7.2,4.8,14.4,7.1,21.7,7.1c7.3,0,13.6-0.6,18.9-1.7c5.3-1.1,10.3-2.8,14.9-5c2-14.8,7.4-26.2,16.3-34.2
		c-12.6-1.3-24-3.3-34-6c-10.1-2.7-20.5-7-31.2-13c-10.7-6-19.6-13.4-26.7-22.2c-7.1-8.9-12.9-20.5-17.4-34.9
		c-4.5-14.4-6.8-31-6.8-49.8c0-26.8,8.7-49.6,26.2-68.4c-8.2-20.1-7.4-42.7,2.3-67.7c6.4-2,15.9-0.5,28.6,4.5
		c12.6,5,21.9,9.2,27.7,12.8c5.9,3.5,10.6,6.5,14.1,9c20.6-5.8,41.8-8.6,63.8-8.6c21.9,0,43.2,2.9,63.8,8.6l12.6-8
		c8.6-5.3,18.8-10.2,30.5-14.6c11.7-4.4,20.7-5.6,26.9-3.7c10,25,10.8,47.6,2.7,67.7c17.5,18.8,26.2,41.6,26.2,68.4
		c0,18.8-2.3,35.5-6.8,50c-4.5,14.5-10.4,26.1-17.6,34.9c-7.2,8.7-16.2,16.1-26.9,22.1c-10.7,6-21.1,10.3-31.2,12.9
		c-10.1,2.7-21.4,4.7-34,6c11.5,10,17.3,25.7,17.3,47.1V510l8.7,0h116.3v0H459c28.1,0,51-23,51-51V51C510,23,487.1,0,459,0z"/>
</g>
</svg>
