<?xml version="1.0" encoding="utf-8"?>
<!-- Generator: Adobe Illustrator 24.1.3, SVG Export Plug-In . SVG Version: 6.00 Build 0)  -->
<svg version="1.1" id="Capa_1" xmlns="http://www.w3.org/2000/svg" xmlns:xlink="http://www.w3.org/1999/xlink" x="0px" y="0px"
	 viewBox="0 0 510 510" style="enable-background:new 0 0 510 510;" xml:space="preserve">
<g>
	<circle cx="405.4" cy="105.6" r="14.9"/>
	<circle cx="256" cy="255" r="104.6"/>
	<path d="M459,0H51C23,0,0,23,0,51v408c0,28,22.9,51,51,51h408c28.1,0,51-23,51-51V51C510,23,487.1,0,459,0z M256,389.5
		c-74.2,0-134.5-60.3-134.5-134.5S181.8,120.5,256,120.5S390.5,180.8,390.5,255S330.1,389.5,256,389.5z M405.4,150.4
		c-24.7,0-44.8-20.1-44.8-44.8s20.1-44.8,44.8-44.8s44.8,20.1,44.8,44.8S430.1,150.4,405.4,150.4z"/>
</g>
</svg>
