<svg xmlns="http://www.w3.org/2000/svg" width="26" height="34.488" viewBox="0 0 26 34.488">
  <g id="Group_4" data-name="Group 4" transform="translate(-178 -384)">
    <path id="Subtraction_1" data-name="Subtraction 1" d="M-2027-3586.512c-.294,0-3.485-3.485-6.726-8.052-2.863-4.034-6.275-9.64-6.275-13.436a12.915,12.915,0,0,1,3.808-9.193A12.916,12.916,0,0,1-2027-3621a12.914,12.914,0,0,1,9.192,3.808A12.916,12.916,0,0,1-2014-3608c0,3.8-3.412,9.4-6.275,13.436C-2023.515-3590-2026.706-3586.512-2027-3586.512Zm0-24.488a3,3,0,0,0-3,3,3,3,0,0,0,3,3,3,3,0,0,0,3-3A3,3,0,0,0-2027-3611Z" transform="translate(2218 4005)" fill="#0affef"/>
  </g>
</svg>
