<?xml version="1.0" encoding="utf-8"?>
<!-- Generator: Adobe Illustrator 24.2.0, SVG Export Plug-In . SVG Version: 6.00 Build 0)  -->
<svg version="1.1" id="Capa_1" xmlns="http://www.w3.org/2000/svg" xmlns:xlink="http://www.w3.org/1999/xlink" x="0px" y="0px"
	 viewBox="0 0 469.3 469.3" style="enable-background:new 0 0 469.3 469.3;" xml:space="preserve">
<g>
	<g>
		<g>
			<path d="M42.7,85.3H0v341.3c0,23.6,19.1,42.7,42.7,42.7H384v-42.7H42.7V85.3z"/>
			<path d="M346.6,256h-85.3v10.2c0,17.9,14.5,32.5,32.5,32.5h65.4c16.6,0,30.1-13.5,30.1-30.1V115.5c0-16.6-13.5-30.1-30.1-30.1
				h-67.8c-16.6,0-30.1,13.5-30.1,30.1v147.9 M303.9,256V128h42.7v128L303.9,256L303.9,256z"/>
			<path d="M426.7,0H128c-23.6,0-42.7,19.1-42.7,42.7v298.7c0,23.6,19.1,42.7,42.7,42.7h298.7c23.6,0,42.7-19.1,42.7-42.7V42.7
				C469.3,19.1,450.2,0,426.7,0z M426.7,341.3H128V42.7h298.7V341.3z"/>
		</g>
	</g>
</g>
<polygon points="189.2,299.7 231.9,299.7 231.9,86.3 146.5,86.3 146.5,129 189.2,129 "/>
</svg>
